<?xml version="1.0" standalone="no"?>
<!DOCTYPE svg PUBLIC "-//W3C//DTD SVG 20010904//EN"
 "http://www.w3.org/TR/2001/REC-SVG-20010904/DTD/svg10.dtd">
<svg version="1.0" xmlns="http://www.w3.org/2000/svg"
 width="500.000000pt" height="500.000000pt" viewBox="0 0 500.000000 500.000000"
 preserveAspectRatio="xMidYMid meet">

<g transform="translate(0.000000,500.000000) scale(0.100000,-0.100000)"
fill="#000000" stroke="none">
<path d="M1295 4321 c-46 -21 -79 -54 -94 -94 -8 -20 -11 -435 -11 -1341 l0
-1312 23 -44 c14 -30 36 -53 62 -67 l40 -23 720 0 720 0 39 23 c25 14 48 39
63 66 l23 44 0 1311 c0 1266 -1 1312 -19 1353 -12 26 -35 52 -62 70 l-43 28
-710 2 c-675 3 -713 2 -751 -16z m1472 -57 c15 -11 36 -36 45 -55 17 -32 18
-116 18 -1322 0 -1418 4 -1337 -62 -1377 -32 -19 -49 -20 -740 -20 l-706 0
-30 25 c-16 13 -35 37 -41 52 -8 21 -11 371 -9 1335 l3 1307 30 31 c16 17 43
35 60 40 17 5 333 8 717 7 677 -2 687 -2 715 -23z"/>
<path d="M1567 4213 c-16 -16 -3 -32 50 -67 68 -42 101 -45 141 -11 17 14 40
25 52 25 12 0 35 -11 52 -25 16 -14 42 -25 57 -25 16 0 45 11 65 25 20 14 44
25 53 25 8 0 28 -11 45 -25 19 -16 42 -25 63 -25 21 0 44 9 63 25 17 14 37 25
45 25 9 0 33 -11 53 -25 20 -14 49 -25 63 -25 15 0 42 11 61 25 19 14 39 25
46 25 18 0 35 26 28 44 -9 23 -45 20 -84 -9 -43 -32 -64 -31 -103 1 -25 21
-38 25 -70 21 -21 -3 -49 -15 -61 -26 -12 -12 -31 -21 -41 -21 -10 0 -29 9
-41 21 -12 11 -40 23 -61 26 -32 4 -45 0 -70 -21 -38 -32 -54 -33 -101 -1 -20
14 -48 25 -63 25 -14 0 -43 -11 -63 -25 -20 -14 -44 -25 -53 -25 -8 0 -28 11
-45 25 -28 24 -67 33 -81 18z"/>
<path d="M1731 3149 c-19 -30 -24 -33 -65 -30 -91 5 -109 -24 -111 -179 -2
-110 -10 -170 -24 -170 -3 0 -31 55 -61 123 -49 109 -59 124 -92 140 -35 17
-40 17 -71 2 -35 -17 -57 -50 -57 -88 0 -12 25 -92 56 -178 57 -155 58 -158
149 -267 100 -120 98 -116 116 -244 l12 -88 156 -86 156 -86 175 6 c96 4 227
9 290 12 88 5 150 1 262 -15 82 -12 159 -21 173 -21 28 0 33 21 11 40 -8 6
-16 26 -18 43 l-3 32 -147 21 c-152 21 -148 21 -408 -6 -58 -6 -125 -13 -150
-15 -25 -2 -72 -7 -105 -10 -59 -5 -62 -4 -190 63 l-130 68 -33 154 c-33 158
-54 330 -40 330 4 0 7 10 7 23 -2 24 12 169 16 177 1 3 -1 34 -6 69 -10 71 2
104 41 116 63 20 90 -60 90 -266 0 -118 -1 -127 -20 -132 -19 -5 -20 -14 -20
-162 l0 -157 38 7 c20 4 38 8 39 9 1 1 -2 31 -8 66 -6 36 -13 95 -16 132 -5
64 -5 67 18 73 56 13 327 55 356 55 32 0 95 -42 82 -55 -4 -3 -81 -18 -172
-32 -193 -31 -174 -10 -177 -197 l-1 -119 38 7 c21 3 43 6 50 6 8 0 9 9 3 31
-14 47 -42 201 -37 205 2 2 62 13 133 24 71 10 151 24 179 29 31 6 56 6 67 0
21 -11 24 -54 6 -66 -7 -4 -69 -20 -138 -34 l-125 -25 -3 -82 c-3 -75 -1 -82
16 -82 20 0 32 38 32 103 0 15 4 27 8 27 24 0 210 42 228 51 24 12 44 49 44
80 0 27 -53 79 -79 79 -13 0 -26 11 -36 30 -22 43 -68 62 -169 71 -168 16
-252 86 -296 251 -19 72 -21 86 -9 107 8 13 18 24 23 25 6 1 36 -39 69 -87 90
-133 155 -174 336 -213 l82 -18 147 -177 147 -177 117 -23 c65 -13 120 -20
124 -16 20 19 -12 34 -110 52 l-106 18 -137 165 c-76 90 -143 170 -150 178 -6
9 -51 23 -100 33 -171 36 -258 94 -341 231 -35 59 -43 65 -75 68 -32 3 -39 -1
-56 -29z m-354 -161 c11 -13 37 -61 58 -108 20 -47 49 -107 64 -135 23 -42 26
-57 20 -90 -4 -22 -5 -55 -2 -74 7 -41 -1 -39 -61 17 -41 38 -54 61 -106 193
-33 82 -60 156 -60 164 0 19 35 55 53 55 8 0 23 -10 34 -22z m484 -270 c-3 -4
-24 -8 -46 -10 -37 -3 -40 -1 -43 26 -2 15 -1 39 2 52 6 23 7 22 49 -19 24
-23 41 -45 38 -49z"/>
</g>
</svg>
