<?xml version="1.0" standalone="no"?>
<!DOCTYPE svg PUBLIC "-//W3C//DTD SVG 20010904//EN"
 "http://www.w3.org/TR/2001/REC-SVG-20010904/DTD/svg10.dtd">
<svg version="1.0" xmlns="http://www.w3.org/2000/svg"
 width="500.000000pt" height="500.000000pt" viewBox="0 0 500.000000 500.000000"
 preserveAspectRatio="xMidYMid meet">

<g transform="translate(0.000000,500.000000) scale(0.100000,-0.100000)"
fill="#000000" stroke="none">
<path d="M2920 2195 l0 -296 24 -24 c27 -26 72 -38 131 -33 l40 3 3 50 c2 44
0 51 -20 60 l-23 10 -3 263 -2 262 -75 0 -75 0 0 -295z"/>
<path d="M2472 2441 c-67 -23 -133 -86 -163 -155 -33 -73 -32 -209 1 -284 57
-131 212 -193 368 -147 85 26 162 111 162 180 0 25 -1 25 -74 25 l-74 0 -12
-36 c-13 -39 -60 -74 -98 -74 -84 0 -135 75 -135 200 0 88 20 140 66 174 59
43 152 15 171 -53 l9 -31 79 0 78 0 -6 28 c-13 58 -47 114 -84 138 -82 55
-193 68 -288 35z"/>
<path d="M260 2150 l0 -300 230 0 230 0 0 60 0 59 -152 3 -153 3 -3 58 -3 57
141 0 140 0 0 60 0 60 -140 0 -141 0 3 58 3 57 148 3 147 3 0 59 0 60 -225 0
-225 0 0 -300z"/>
<path d="M905 2308 c-66 -24 -115 -78 -115 -128 0 -18 6 -20 70 -20 40 0 70 4
70 10 0 19 40 50 64 50 28 0 56 -33 56 -67 0 -21 -5 -23 -53 -23 -115 0 -209
-54 -223 -127 -10 -51 11 -108 48 -134 63 -45 196 -31 217 23 9 22 10 22 16
-9 l8 -33 72 0 72 0 -4 178 c-6 208 -14 234 -83 270 -49 24 -159 30 -215 10z
m145 -286 c0 -55 -56 -96 -100 -72 -20 11 -26 45 -12 67 10 16 51 32 85 32 23
1 27 -3 27 -27z"/>
<path d="M1373 2301 c-94 -44 -112 -165 -33 -228 8 -7 47 -22 85 -34 86 -26
115 -44 115 -70 0 -42 -88 -41 -111 2 -8 16 -21 19 -84 19 -41 0 -75 -2 -75
-5 0 -18 31 -73 51 -92 52 -48 173 -67 262 -42 79 22 122 91 106 167 -11 52
-44 79 -133 108 -94 30 -127 55 -110 82 17 27 49 26 72 -2 18 -24 27 -26 91
-26 80 0 85 6 49 60 -42 61 -71 75 -161 78 -65 2 -91 -2 -124 -17z"/>
<path d="M3306 2305 c-21 -7 -53 -28 -72 -46 -110 -107 -94 -311 32 -385 60
-35 151 -43 222 -20 53 18 124 84 135 126 5 19 0 20 -74 20 -65 0 -79 -3 -79
-16 0 -20 -64 -46 -96 -38 -26 7 -47 32 -59 72 l-6 22 160 0 c159 0 161 0 166
23 7 26 -9 107 -29 146 -20 38 -65 77 -108 95 -46 20 -140 20 -192 1z m139
-110 c45 -44 34 -55 -50 -55 -61 0 -75 3 -75 15 0 25 47 65 75 65 14 0 37 -11
50 -25z"/>
<path d="M3805 2301 c-57 -26 -105 -86 -105 -132 0 -5 34 -9 75 -9 56 0 75 3
75 13 0 20 33 47 58 47 29 0 52 -26 52 -59 0 -28 -1 -28 -73 -33 -127 -8 -199
-64 -199 -153 0 -56 22 -92 73 -117 66 -34 179 -15 195 34 8 22 8 22 14 -7 5
-30 6 -30 80 -33 l75 -3 -2 148 c-4 231 -22 282 -112 312 -53 17 -160 13 -206
-8z m155 -285 c0 -25 -7 -40 -26 -55 -33 -26 -45 -26 -75 -2 -23 19 -23 21 -9
47 15 28 43 41 88 43 19 1 22 -4 22 -33z"/>
<path d="M4434 2310 c-12 -4 -31 -21 -42 -37 l-21 -28 -1 33 0 32 -80 0 -80 0
0 -230 0 -230 80 0 80 0 0 140 c0 100 4 151 14 175 29 69 110 72 133 5 7 -20
12 -95 12 -177 l1 -143 75 0 75 0 0 178 c0 199 -7 228 -69 269 -26 18 -47 23
-95 22 -34 0 -70 -4 -82 -9z"/>
<path d="M1806 2073 c52 -131 94 -243 94 -250 0 -21 -52 -53 -86 -53 l-34 0 0
-50 0 -50 60 0 c137 0 161 29 291 360 56 140 103 261 106 268 4 9 -16 12 -80
12 l-84 0 -42 -152 c-23 -84 -45 -160 -48 -168 -3 -8 -26 59 -52 150 l-46 165
-87 3 -86 3 94 -238z"/>
<path d="M3570 1725 c0 -10 7 -15 18 -13 21 4 19 22 -2 26 -10 2 -16 -3 -16
-13z"/>
<path d="M3910 1725 c0 -10 7 -15 18 -13 21 4 19 22 -2 26 -10 2 -16 -3 -16
-13z"/>
<path d="M3370 1634 l0 -96 60 4 c69 5 97 24 106 75 8 43 -10 87 -42 102 -14
6 -47 11 -74 11 l-50 0 0 -96z m118 48 c17 -22 15 -72 -5 -94 -9 -10 -29 -18
-45 -18 l-28 0 0 71 0 71 33 -7 c17 -4 38 -14 45 -23z"/>
<path d="M4130 1705 c0 -8 -4 -15 -10 -15 -5 0 -10 -7 -10 -15 0 -8 4 -15 10
-15 5 0 10 -26 12 -57 3 -55 4 -58 31 -61 31 -4 34 3 12 24 -8 9 -15 33 -15
55 0 28 4 39 15 39 8 0 15 7 15 15 0 8 -7 15 -15 15 -8 0 -15 7 -15 15 0 8 -7
15 -15 15 -8 0 -15 -7 -15 -15z"/>
<path d="M3570 1615 c0 -60 3 -75 15 -75 12 0 15 15 15 75 0 60 -3 75 -15 75
-12 0 -15 -15 -15 -75z"/>
<path d="M3657 1672 c-10 -10 -17 -22 -17 -25 0 -14 33 -7 45 10 7 9 19 14 29
10 23 -9 20 -37 -4 -37 -40 0 -70 -22 -70 -51 0 -23 6 -30 27 -35 14 -4 34 -2
45 5 11 7 18 7 18 1 0 -5 7 -10 15 -10 12 0 15 14 15 63 0 36 -5 68 -12 75
-18 18 -73 14 -91 -6z m71 -78 c-5 -25 -35 -41 -49 -27 -9 9 -9 16 1 28 17 21
52 20 48 -1z"/>
<path d="M3800 1615 c0 -68 2 -75 20 -75 18 0 20 7 20 56 0 47 3 57 20 61 11
3 20 12 20 19 0 17 -12 18 -28 2 -9 -9 -12 -9 -12 0 0 7 -9 12 -20 12 -18 0
-20 -7 -20 -75z"/>
<path d="M3910 1615 c0 -60 3 -75 15 -75 12 0 15 15 15 75 0 60 -3 75 -15 75
-12 0 -15 -15 -15 -75z"/>
<path d="M3990 1676 c-21 -26 -8 -58 29 -71 19 -6 37 -17 39 -23 5 -17 -26
-26 -43 -12 -8 6 -22 10 -31 8 -17 -3 -17 -4 0 -20 20 -21 76 -24 94 -6 25 25
14 55 -28 72 -22 9 -40 20 -40 25 0 17 20 23 35 11 8 -6 22 -10 31 -8 17 3 17
4 0 21 -21 21 -69 22 -86 3z"/>
<path d="M4237 1672 c-10 -10 -17 -22 -17 -25 0 -13 23 -7 42 9 14 14 20 14
33 4 24 -20 18 -27 -25 -34 -46 -7 -67 -34 -50 -66 12 -23 59 -27 78 -8 9 9
12 9 12 0 0 -7 7 -12 15 -12 22 0 21 112 -1 134 -21 22 -67 20 -87 -2z m66
-68 c10 -10 -12 -44 -29 -44 -20 0 -30 30 -13 41 17 10 33 11 42 3z"/>
<path d="M4394 1682 c-15 -10 -23 -37 -15 -51 4 -7 23 -20 41 -29 39 -20 44
-36 13 -40 -13 -2 -23 1 -23 7 0 6 -9 11 -20 11 -25 0 -26 -16 -1 -30 28 -15
77 -12 91 5 19 23 7 49 -32 68 -21 10 -38 23 -38 27 0 15 21 23 33 11 6 -6 20
-11 31 -11 18 0 19 1 1 20 -18 20 -60 26 -81 12z"/>
</g>
</svg>
