<svg id="Capa_1" enable-background="new 0 0 512 512" height="512" viewBox="0 0 512 512" width="512" xmlns="http://www.w3.org/2000/svg"><g><path d="m491.667 370c0-35.841-29.159-65-65-65h-113v-64h-10.667v-241h-94v241h-10.667v64h-113c-35.841 0-65 29.159-65 65v29h21.06l-16 113h461.213l-16-113h21.06v-29zm-39.607 112h-58.393v-34h-30v34h-51.778v-34h-30v34h-51.778v-34h-30v34h-51.778v-34h-30v34h-58.393l11.752-83h368.615zm-366.727-147h143v-64h55.334v64h143c18.964 0 34.455 15.162 34.986 34h-411.306c.532-18.838 16.022-34 34.986-34zm187.667-305v211h-34v-211z"/></g></svg>